<?xml version="1.0" standalone="no"?>
<!DOCTYPE svg PUBLIC "-//W3C//DTD SVG 20010904//EN"
 "http://www.w3.org/TR/2001/REC-SVG-20010904/DTD/svg10.dtd">
<svg version="1.0" xmlns="http://www.w3.org/2000/svg"
 width="256.000000pt" height="256.000000pt" viewBox="0 0 256.000000 256.000000"
 preserveAspectRatio="xMidYMid meet">
<metadata>
Created by potrace 1.14, written by Peter Selinger 2001-2017
</metadata>
<g transform="translate(0.000000,256.000000) scale(0.100000,-0.100000)"
fill="#000000" stroke="none">
<path d="M739 1803 c-9 -25 -47 -112 -89 -208 -10 -22 -43 -101 -74 -175 -32
-74 -65 -153 -75 -175 -10 -22 -58 -132 -106 -245 -48 -113 -93 -218 -101
-234 -8 -16 -14 -31 -14 -33 0 -1 174 -3 386 -3 212 0 384 3 382 8 -1 4 -21
53 -43 110 l-40 102 -148 0 c-137 0 -149 1 -145 18 8 27 211 546 217 554 3 4
73 -168 155 -382 82 -214 152 -394 156 -400 4 -7 60 -10 157 -8 l151 3 -109
260 c-60 143 -137 325 -170 405 -34 80 -69 163 -78 185 -10 22 -37 86 -61 143
l-43 102 -149 0 -148 0 -11 -27z"/>
<path d="M1330 1634 l0 -196 146 -341 c80 -188 148 -344 149 -345 2 -2 3 58 2
135 l-2 138 113 1 c204 3 279 16 361 66 114 69 167 164 178 313 15 220 -98
369 -311 410 -49 9 -160 14 -353 15 l-283 1 0 -197z m580 -58 c114 -54 118
-233 7 -293 -24 -13 -64 -18 -162 -21 l-130 -4 0 171 0 172 120 -2 c101 -1
128 -5 165 -23z"/>
</g>
</svg>
