<svg version="1" xmlns="http://www.w3.org/2000/svg" width="682.667" height="682.667" viewBox="0 0 512.000000 512.000000"><path d="M150 147.3c0 .8-.6 2.7-1.4 4.3-.8 1.6-2.1 4.5-2.9 6.4-2.9 6.9-4.5 10.6-7.1 16.3-1.4 3.2-2.6 6-2.6 6.2 0 .2-1.2 3-2.6 6.2-1.4 3.2-3.2 7.3-4 9-.8 1.8-2.1 4.9-2.9 6.8-.8 1.9-2.2 5.1-3 7-.8 1.9-2.2 5.1-3 7-.8 1.9-2.1 5-2.9 6.7-.7 1.8-2.1 5.1-3.1 7.3s-2.4 5.5-3.1 7.2c-.8 1.8-2 4.8-2.8 6.5-1.7 4.2-3.9 9.3-6 14-2 4.8-4.2 9.9-6 14-.7 1.8-2.1 5.1-3.1 7.3-1.9 4.4-4 9.3-6.1 14.2-.8 1.8-2.1 4.9-2.9 6.8-.8 1.9-2.2 5.2-3.1 7.2-.9 2.1-2.4 5.6-3.4 7.8-1.7 3.8-3.1 7.1-6.4 14.8-.7 1.7-2.1 4.9-3 6.9-2 4.8-4.2 9.9-6 14-.7 1.8-2.1 4.9-2.9 6.8-.8 1.9-1.8 4.5-2.2 5.8l-.6 2.2 75.8-.2 75.8-.3-.4-2.5c-.1-1.3-1.1-4.3-2.1-6.5s-2.3-5.6-3-7.5c-.7-1.9-1.6-4.5-2.1-5.8-.5-1.2-1.3-3.3-1.9-4.7-.5-1.4-1.4-3.5-1.9-4.8-.5-1.2-1.5-3.8-2.2-5.7-2.3-6.3-.6-6-32.6-6h-29.5l.7-3.2c.4-1.8 1.1-3.9 1.5-4.8.8-1.5 2.3-5.2 3.9-9.3.4-1.2 1.4-3.6 2.1-5.2 1.5-3.5 1.5-3.6 7-18 5.3-13.9 5.5-14.4 6.9-17.8 2.1-5.2 2.9-7.2 8.1-20.7 6.8-17.6 6.6-17.1 7.9-20.3.6-1.5 1.6-3.8 2.1-5.2 5.8-14.6 5.4-14.4 8.9-5 1.3 3.3 2.7 6.9 3.1 8 .4 1.1 1.8 4.7 3 8s2.7 7.1 3.2 8.5c1.4 3.2 1.9 4.7 5.8 15s4.4 11.8 5.8 15c.5 1.4 2 5.2 3.2 8.5 2.9 8 4.2 11.2 6.8 17.5.5 1.4 1.5 4.1 2.2 6 1.4 4 2.3 6.4 3.9 10.2 2.1 5.3 2.9 7.3 5.1 13.3 2.2 6 3 8 5.1 13.2.7 1.6 1.6 3.8 2 5 .5 1.3 1.3 3.3 1.8 4.5.5 1.3 1.4 3.9 2.1 5.8.7 1.9 2.1 5.4 3.1 7.7 1.1 2.4 1.9 5 1.9 5.8 0 1.3 4 1.5 30.6 1.5h30.5l-.6-2.3c-.4-1.2-1.3-3.7-2.1-5.5-.8-1.7-2-4.7-2.8-6.5-.7-1.7-2.3-5.3-3.5-7.9-1.1-2.6-2.1-5-2.1-5.3 0-.3-.9-2.7-2.1-5.3-1.2-2.6-2.5-5.6-2.9-6.7-.4-1.1-1.5-3.7-2.4-5.8-.9-2-2.2-5.2-3-7-.7-1.7-2.3-5.3-3.5-7.9-1.1-2.6-2.1-5-2.1-5.3 0-.3-.9-2.7-2.1-5.3-1.2-2.6-2.5-5.6-2.9-6.7-.4-1.1-1.6-3.8-2.5-6-1-2.2-2.3-5.4-3-7-.7-1.7-2.2-5.1-3.4-7.7-1.1-2.6-2.1-5.2-2.1-5.7s-1-2.9-2.1-5.3c-1.2-2.3-2.5-5.2-2.9-6.3-.5-1.1-1.5-3.7-2.4-5.8-.9-2-2.3-5.4-3.2-7.5-.9-2-2-4.7-2.5-6-.5-1.2-1.3-3.2-1.8-4.5-.5-1.2-1.6-3.9-2.5-6-.9-2-2.2-5.2-3-7-.7-1.7-2.3-5.3-3.5-7.9-1.1-2.6-2.1-5-2.1-5.3 0-.3-.9-2.7-2.1-5.3-1.2-2.6-2.5-5.6-2.9-6.7-.9-2.2-2.8-6.9-5.5-13-.9-2.2-2-4.9-2.5-6-1.5-4-2.8-7.1-4.8-11.5-1.1-2.5-2.7-6.2-3.6-8.3l-1.7-3.7h-29.4c-24.1 0-29.5.2-29.5 1.3zM266.7 146.6c-1 1.1-.9 77.1.2 79.2.5.9 1.7 3.5 2.6 5.7 1 2.2 2.4 5.5 3.1 7.2.8 1.8 2.1 4.9 2.9 6.8.8 1.9 2.1 5 2.9 6.7.7 1.8 2.1 5 3 7 .9 2.1 2.3 5.4 3.1 7.3.8 1.9 2.2 5.1 3 7 .8 1.9 2.2 5.1 3 7 .8 1.9 2.2 5.1 3 7 .8 1.9 2.2 5.1 3 7 .8 1.9 2.2 5.1 3 7 .8 1.9 2.1 5 2.9 6.7.7 1.8 2.1 5 3 7 .9 2.1 2.3 5.4 3.1 7.3.8 1.9 2.2 5.1 3 7 .8 1.9 2.2 5.1 3 7 .8 1.9 2.2 5.1 3 7 .8 1.9 2.1 5 2.9 6.7.8 1.8 1.7 4.2 2 5.2 1.6 4.7 2.1-1.3 2.1-24.2v-24.7l28.5-.6c28.9-.7 35.3-1.1 42.5-3.1 15.7-4.3 25.3-9.1 35.3-17.8 9.6-8.3 13.6-14.3 20.2-30.5 3.6-8.7 5.5-31.9 3.7-44-2-12.9-4.8-20.4-11.5-30.8-5.9-9.1-14.8-16.9-25.2-21.9-14.3-6.9-17-7.6-34.5-9.9-9.2-1.2-115.7-2.4-116.8-1.3zm108.2 46.6c7 2.2 11.6 4.7 15.8 8.3 3.9 3.3 5 5 8.2 12.8.6 1.5 1.1 6.8 1.1 11.7 0 4.9-.5 10.2-1.1 11.7-3.1 7.5-4 9.1-7.6 12.5-9.3 8.9-14.1 9.9-43.3 9.6l-23.5-.3-.3-32.5c-.1-17.9 0-33 .3-33.7.6-1.7 45.2-1.8 50.4-.1z"/></svg>